<?xml version="1.0" standalone="no"?>
<!DOCTYPE svg PUBLIC "-//W3C//DTD SVG 20010904//EN"
 "http://www.w3.org/TR/2001/REC-SVG-20010904/DTD/svg10.dtd">
<svg version="1.0" xmlns="http://www.w3.org/2000/svg"
 width="413.000000pt" height="413.000000pt" viewBox="0 0 413.000000 413.000000"
 preserveAspectRatio="xMidYMid meet">
<metadata>
Created by potrace 1.14, written by Peter Selinger 2001-2017
</metadata>
<g transform="translate(0.000000,413.000000) scale(0.100000,-0.100000)"
fill="#000000" stroke="none">
<path d="M2742 2435 c-216 -156 -394 -287 -395 -292 -1 -4 62 -24 140 -43 78
-19 144 -38 147 -41 3 -3 -11 -23 -32 -45 -33 -36 -84 -93 -257 -283 -27 -30
-62 -67 -77 -83 -15 -15 -25 -28 -22 -28 16 0 853 544 847 550 -8 7 -316 73
-340 73 -18 0 -16 8 10 38 12 14 45 52 73 85 29 32 87 100 129 149 43 50 91
106 109 125 51 57 69 80 65 79 -2 0 -181 -128 -397 -284z"/>
<path d="M466 2531 c-13 -25 -69 -143 -124 -261 -55 -118 -125 -269 -157 -334
-73 -155 -95 -204 -95 -210 0 -4 63 -6 140 -6 l141 0 33 73 c19 39 57 120 85
180 l51 107 128 0 129 0 31 69 c18 39 32 74 32 78 0 5 -51 8 -112 7 -62 0
-118 1 -124 4 -8 2 2 32 27 83 21 44 39 84 39 89 0 6 54 10 134 10 l134 0 36
76 c20 42 36 77 36 79 0 1 -122 2 -270 3 l-271 0 -23 -47z"/>
<path d="M1073 2481 c-25 -53 -60 -127 -78 -166 -66 -142 -179 -383 -226 -483
-27 -57 -49 -106 -49 -108 0 -2 132 -4 294 -4 l293 0 46 77 c25 43 44 80 41
82 -3 3 -69 5 -147 6 -104 0 -141 3 -140 12 2 11 19 47 118 258 20 44 64 138
96 208 32 70 67 145 78 167 11 22 16 42 13 44 -4 2 -72 3 -151 3 l-143 0 -45
-96z"/>
<path d="M1871 2436 c-54 -78 -187 -267 -295 -421 -107 -154 -196 -283 -196
-288 0 -4 66 -6 146 -5 133 3 148 5 158 22 6 11 27 45 46 75 l35 56 90 -1 c50
-1 91 -2 92 -3 1 -1 -7 -31 -18 -68 -10 -38 -19 -71 -19 -75 0 -5 62 -8 139
-8 l138 0 18 83 c10 45 20 87 21 92 1 6 5 26 8 45 4 19 9 42 11 50 2 8 6 26 9
40 3 14 19 88 36 165 36 163 37 165 50 230 6 28 13 61 16 75 3 14 7 37 10 51
l5 26 -201 0 -200 0 -99 -141z m169 -217 c-22 -79 -45 -160 -51 -180 l-11 -36
-68 0 -68 0 46 73 c26 40 78 123 117 183 38 61 71 109 72 107 1 -1 -15 -67
-37 -147z"/>
<path d="M3330 2571 c0 -8 -40 -94 -167 -361 -25 -52 -57 -120 -70 -150 -14
-30 -52 -110 -83 -177 -87 -183 -95 -163 67 -163 l139 0 74 156 c41 86 79 167
83 180 8 22 14 24 82 24 l74 0 -23 -47 c-35 -70 -106 -221 -127 -271 l-19 -43
142 3 141 3 66 140 c36 78 88 188 115 245 27 58 67 143 89 190 22 47 59 127
83 179 24 51 44 94 44 96 0 1 -63 2 -140 2 l-140 0 -43 -91 c-23 -50 -60 -127
-82 -171 l-40 -80 -63 0 c-35 -1 -65 2 -67 5 -1 3 9 30 24 60 50 104 121 262
121 269 0 4 -63 8 -140 8 -77 1 -140 -2 -140 -6z"/>
<path d="M3894 1878 c-43 -20 -57 -95 -26 -135 54 -70 162 -28 162 62 0 37
-50 85 -87 84 -15 0 -38 -5 -49 -11z m94 -18 c9 0 29 -65 25 -81 -7 -24 -33
-46 -64 -54 -19 -5 -34 0 -57 19 -25 22 -29 32 -26 59 3 17 16 42 29 54 21 18
30 20 57 12 18 -5 34 -9 36 -9z"/>
<path d="M3900 1831 c-30 -58 28 -117 72 -73 6 6 8 15 4 19 -4 4 -11 1 -15 -6
-14 -22 -46 -9 -49 20 -4 31 23 58 40 41 17 -17 28 -15 22 3 -9 22 -61 19 -74
-4z"/>
<path d="M2226 1574 c-20 -20 -22 -142 -3 -168 16 -21 60 -24 82 -6 8 7 15 23
15 36 0 18 -6 24 -22 24 -12 0 -18 -3 -15 -6 9 -10 -12 -46 -24 -39 -5 4 -9
37 -9 76 0 55 3 69 15 69 8 0 15 -9 15 -20 0 -13 7 -20 20 -20 17 0 19 5 16
27 -8 43 -59 59 -90 27z"/>
<path d="M2339 1560 c0 -16 -1 -46 -1 -65 0 -102 0 -103 30 -106 15 -2 37 -3
49 -1 31 5 18 32 -16 32 -27 0 -27 1 -28 63 -1 99 -2 107 -18 107 -10 0 -15
-10 -16 -30z"/>
<path d="M2449 1578 c-10 -104 1 -187 25 -189 6 0 19 -2 29 -4 9 -2 24 3 32
12 15 14 17 26 17 98 0 85 -2 95 -17 95 -16 0 -18 -17 -16 -116 1 -38 -3 -53
-14 -58 -18 -7 -18 -8 -21 79 -1 39 -3 76 -3 83 -1 6 -8 12 -16 12 -8 0 -16
-6 -16 -12z"/>
<path d="M2579 1582 c-3 -20 -5 -179 -2 -188 4 -10 87 -4 98 8 14 13 13 54 0
75 -9 13 -11 23 -5 23 18 0 12 68 -7 78 -21 11 -83 14 -84 4z m66 -40 c7 -18
-2 -32 -21 -32 -8 0 -14 10 -14 23 0 26 26 33 35 9z m-7 -71 c19 -11 11 -45
-11 -49 -13 -3 -17 3 -17 27 0 32 6 37 28 22z"/>
<path d="M2756 1574 c-9 -25 -2 -26 17 -4 13 16 14 20 3 20 -8 0 -17 -7 -20
-16z"/>
<path d="M2818 1574 c12 -8 20 -20 17 -25 -4 -5 -1 -9 4 -9 6 0 11 4 11 9 0
13 -29 41 -43 41 -6 0 -1 -7 11 -16z"/>
<path d="M2875 1579 c-4 -6 -4 -13 -1 -16 3 -4 6 -1 6 5 0 6 8 13 18 15 15 4
15 5 0 6 -9 0 -20 -4 -23 -10z"/>
<path d="M2940 1570 c12 -12 18 -26 14 -32 -4 -7 -3 -8 4 -4 18 11 -6 55 -30
56 -5 0 1 -9 12 -20z"/>
<path d="M3126 1574 c-9 -8 -16 -21 -16 -27 0 -7 8 -2 18 9 9 12 24 24 32 27
12 4 12 6 -2 6 -9 1 -24 -6 -32 -15z"/>
<path d="M3246 1574 c-19 -18 -20 -43 -3 -64 14 -18 73 -60 83 -60 8 0 -20 24
-61 53 -29 21 -32 43 -8 69 20 22 11 24 -11 2z"/>
<path d="M3300 1583 c0 -7 5 -15 10 -18 6 -4 8 -11 5 -16 -4 -5 -1 -9 4 -9 15
0 13 11 -4 34 -8 11 -15 15 -15 9z"/>
<path d="M3352 1565 c0 -16 2 -22 5 -12 2 9 2 23 0 30 -3 6 -5 -1 -5 -18z"/>
<path d="M3378 1583 c6 -2 18 -2 25 0 6 3 1 5 -13 5 -14 0 -19 -2 -12 -5z"/>
<path d="M3580 1575 c-7 -9 -11 -17 -9 -20 3 -2 10 5 17 15 14 24 10 26 -8 5z"/>
<path d="M3628 1578 c12 -6 22 -18 23 -27 0 -13 2 -13 6 -2 6 14 -22 42 -41
40 -6 0 -1 -5 12 -11z"/>
<path d="M2990 1560 c0 -11 4 -20 9 -20 5 0 7 9 4 20 -3 11 -7 20 -9 20 -2 0
-4 -9 -4 -20z"/>
<path d="M3077 1568 c-2 -7 -1 -22 4 -33 6 -16 8 -14 8 13 1 33 -4 41 -12 20z"/>
<path d="M3190 1559 c7 -11 14 -19 16 -16 7 7 -7 37 -17 37 -6 0 -5 -9 1 -21z"/>
<path d="M3462 1488 c-1 -54 1 -98 6 -98 4 0 6 30 4 67 -5 119 -9 131 -10 31z"/>
<path d="M2870 1534 c0 -8 5 -12 10 -9 6 4 8 11 5 16 -9 14 -15 11 -15 -7z"/>
<path d="M2753 1505 c-1 -20 2 -33 7 -30 10 6 11 65 1 65 -3 0 -7 -16 -8 -35z"/>
<path d="M3566 1528 c2 -7 22 -26 44 -41 44 -31 53 -68 23 -86 -17 -10 -17
-10 -1 -11 37 0 34 83 -2 95 -11 3 -28 17 -39 31 -20 26 -34 32 -25 12z"/>
<path d="M2834 1521 c4 -7 -2 -15 -16 -20 -16 -7 -18 -10 -6 -10 9 -1 21 -13
26 -28 6 -16 11 -21 11 -13 0 8 -3 22 -9 30 -5 9 -5 19 1 26 7 8 6 15 -2 20
-8 4 -9 3 -5 -5z"/>
<path d="M3140 1499 c19 -16 41 -34 48 -40 16 -13 15 -34 -4 -53 -20 -20 -29
-20 -49 0 -9 9 -18 14 -21 11 -10 -10 43 -38 60 -31 23 9 38 41 31 64 -3 10
-22 29 -41 40 -18 12 -34 26 -34 31 0 5 -6 9 -12 9 -7 0 3 -14 22 -31z"/>
<path d="M3350 1493 c0 -24 3 -33 9 -25 7 12 4 62 -5 62 -2 0 -4 -17 -4 -37z"/>
<path d="M2955 1509 c-4 -6 -5 -12 -2 -15 2 -3 7 2 10 11 7 17 1 20 -8 4z"/>
<path d="M2870 1485 c0 -15 4 -24 10 -20 6 3 10 12 10 20 0 8 -4 17 -10 20 -6
4 -10 -5 -10 -20z"/>
<path d="M2992 1464 c-1 -20 1 -34 5 -30 9 9 11 66 3 66 -4 0 -7 -16 -8 -36z"/>
<path d="M2918 1483 c13 -3 26 -11 29 -19 3 -8 10 -14 16 -14 5 0 2 9 -8 20
-10 11 -28 19 -39 19 -19 -2 -19 -2 2 -6z"/>
<path d="M3080 1451 c0 -51 -45 -73 -73 -37 -6 7 -7 6 -5 -3 7 -26 47 -32 68
-11 17 17 29 80 15 80 -3 0 -5 -13 -5 -29z"/>
<path d="M2750 1450 c0 -5 5 -10 10 -10 6 0 10 5 10 10 0 6 -4 10 -10 10 -5 0
-10 -4 -10 -10z"/>
<path d="M2870 1434 c0 -8 5 -12 10 -9 6 4 8 11 5 16 -9 14 -15 11 -15 -7z"/>
<path d="M3351 1434 c0 -11 3 -14 6 -6 3 7 2 16 -1 19 -3 4 -6 -2 -5 -13z"/>
<path d="M3567 1444 c-7 -8 3 -37 17 -46 22 -15 25 -7 6 12 -12 12 -18 25 -15
30 7 11 2 13 -8 4z"/>
<path d="M2955 1420 c2 -27 15 -38 15 -12 0 11 -4 23 -8 26 -5 3 -8 -4 -7 -14z"/>
<path d="M3231 1429 c-1 -9 7 -23 17 -30 15 -12 16 -12 6 1 -6 8 -14 22 -17
30 -5 13 -6 12 -6 -1z"/>
<path d="M3311 1433 c4 -23 -3 -33 -21 -33 -11 0 -20 -4 -20 -10 0 -13 32 -1
48 18 15 19 16 32 2 32 -5 0 -9 -3 -9 -7z"/>
<path d="M2754 1414 c3 -19 36 -41 36 -24 0 5 -7 10 -16 10 -8 0 -13 4 -9 9 3
5 1 12 -4 15 -5 4 -8 -1 -7 -10z"/>
<path d="M2840 1421 c0 -6 -10 -16 -22 -21 -16 -6 -18 -9 -7 -9 19 -1 45 26
35 36 -3 3 -6 1 -6 -6z"/>
<path d="M3496 1389 c4 -7 44 0 44 7 0 2 -11 3 -24 2 -14 -1 -23 -5 -20 -9z"/>
</g>
</svg>
